<svg width="160" height="68" viewBox="0 0 160 68" fill="none" xmlns="http://www.w3.org/2000/svg">
<path fill-rule="evenodd" clip-rule="evenodd" d="M12.9799 18.6738C12.979 18.6483 12.9841 18.623 12.9948 18.5998C13.0054 18.5766 13.0214 18.5562 13.0413 18.5403C13.0612 18.5244 13.0846 18.5133 13.1096 18.5081C13.1346 18.5028 13.1604 18.5034 13.1851 18.5099C13.2097 18.5165 13.2326 18.5286 13.2517 18.5455C13.2708 18.5624 13.2857 18.5836 13.2952 18.6073C13.3047 18.6309 13.3085 18.6565 13.3063 18.6819C13.3042 18.7074 13.2961 18.7319 13.2827 18.7537C12.3758 21.1301 11.665 23.5768 11.1573 26.0692C10.6564 28.9767 11.2844 31.8151 12.9659 34.237C14.2977 36.0796 16.1526 37.4794 18.2899 38.2546C20.4271 39.0298 22.7481 39.1447 24.9515 38.5844C36.9294 35.5601 47.6501 32.155 59.1776 27.7079L51.7599 27.6894L51.1172 18.1825L47.806 27.6855L41.0417 27.7079L50.5908 0.0511094L56.9812 0.0115026L55.1471 5.54209L59.9922 0L80.8598 0.0140551L79.2755 4.42089L72.9156 4.4407L71.2687 9.47873L77.5684 9.50109L75.533 15.3799L69.0697 15.4335L67.1442 21.479L74.4297 21.5442L73.8854 23.8454L105.559 14.8317C105.642 14.8076 105.732 14.8158 105.809 14.8546C105.887 14.8934 105.948 14.96 105.978 15.0413C106.008 15.123 106.007 15.2129 105.975 15.2936C105.942 15.3737 105.881 15.4383 105.802 15.4744L27.7593 50.871C24.0941 52.5179 20.5817 53.6136 16.631 54.3374C13.7274 54.7878 10.9995 54.6741 8.14313 53.9841C5.5877 53.3612 3.47117 51.9206 1.95388 49.7728C0.436592 47.6243 -0.21121 45.1449 0.0603041 42.5294C1.11889 35.7562 3.64302 29.827 7.79304 24.3731C9.26113 22.1549 10.9113 20.3444 12.9799 18.6738ZM33.2873 27.6919L40.2157 27.7079L49.7392 0.000637365L42.7801 0.0459955L33.2873 27.6919ZM25.7558 27.7111L32.4408 27.6887L41.9553 0.0447207L35.5361 0.0332211L31.7892 9.20338L32.0977 0.0562234L24.7368 0.0447207L15.0402 27.6996L21.6409 27.7021L25.835 17.2645L25.7558 27.7111ZM58.8097 23.952L57.8962 10.8541L66.7801 1.23739L58.8097 23.952Z" fill="#0B0500"/>
</svg>
