<svg width="160" height="68" viewBox="0 0 160 68" fill="none" xmlns="http://www.w3.org/2000/svg">
<g clip-path="url(#clip0_658_598)">
<path d="M35.2671 35.8128L35.2285 26.1483L44.3564 22.7157L35.1641 19.6638L34.9716 10.1416L29.3954 17.8245L20.2739 14.9739L25.5688 23.0388L20.4005 31.1184L29.4032 28.0937L35.2673 35.8131L35.2671 35.8128Z" fill="#0B0500"/>
<path d="M36.4071 45.9717H52.7563L73.2468 23L52.6576 0H36.4661L55.7227 22.9661L36.4072 45.9716L36.4071 45.9717Z" fill="#0B0500"/>
<path d="M0 58.3369C0 55.3515 2.48961 52.4158 5.89204 52.4158C8.20969 52.4158 10.8107 55.0646 10.8107 55.0646L7.99265 56.7266C7.99265 56.7266 7.52716 55.4802 5.78955 55.4802C4.02317 55.4802 2.98374 56.9504 2.97167 58.2849C2.95802 59.7766 4.16437 61.0896 5.6872 61.0896C6.88189 61.0896 8.14645 59.7911 8.14645 59.7911L10.5545 61.5571C10.5545 61.5571 8.75261 63.7904 5.73838 63.7904C2.72414 63.7904 0 61.9443 0 58.3369Z" fill="#0B0500"/>
<path d="M17.5692 52.5667C14.4 52.5667 11.8353 55.1329 11.8353 58.2882C11.8353 61.4434 14.4 63.9998 17.5692 63.9998C20.7384 63.9998 23.313 61.4437 23.313 58.2882C23.313 55.1327 20.7384 52.5667 17.5692 52.5667ZM17.5692 55.4274C19.1538 55.4274 20.441 56.7106 20.441 58.2882C20.441 59.8658 19.1538 61.139 17.5692 61.139C15.9846 61.139 14.7073 59.8659 14.7073 58.2882C14.7073 56.7104 15.9846 55.4274 17.5692 55.4274Z" fill="#0B0500"/>
<path d="M25.4668 52.7285V63.4238H28.229V57.6434L32.7861 63.4238H35.5084V52.7285H32.7362V58.9789L28.229 52.7285H25.4668Z" fill="#0B0500"/>
<path d="M37.7622 52.7285L41.4917 63.4238H45.6001L49.3295 52.7285H46.3081L43.5461 61.2201L40.7839 52.7285H37.7623H37.7622Z" fill="#0B0500"/>
<path d="M51.314 52.7285V63.4238H59.8001V60.9573H54.0762V59.168H59.2215V56.9845H54.0762V55.2761H59.8001V52.7286L51.314 52.7285Z" fill="#0B0500"/>
<path d="M85.514 52.7285V63.4238H94V60.9573H88.2762V59.168H93.4217V56.9845H88.2762V55.2761H94V52.7286L85.514 52.7285Z" fill="#0B0500"/>
<path d="M62.9212 52.9307V63.4742H65.3742V59.3195H66.7802L68.9341 63.4742H72.0951L69.9611 58.9656C72.7356 57.2793 72.1865 53.7494 69.0936 52.9307H62.921H62.9212ZM65.3243 55.478H68.1563C69.1403 55.478 69.0764 57.0247 68.1563 57.0247H65.3243V55.478Z" fill="#0B0500"/>
<path d="M73.5691 61.9976C73.6778 62.6586 76.2488 63.9073 78.7862 63.9073C81.116 63.9073 82.9887 62.7733 82.9887 60.5222C82.9887 57.7536 79.8005 57.1129 79.8005 57.1129C79.8005 57.1129 77.1518 57.0752 77.0833 55.8277C77.0512 55.2406 77.8581 54.9094 78.5687 54.9094C79.7324 54.9094 81.0324 56.0846 81.0324 56.0846L82.88 54.0647C82.88 54.0647 80.5421 52.1917 78.5687 52.1917C76.6842 52.1917 74.0038 53.4427 74.0038 56.0479C74.0038 58.2644 77.1065 59.284 77.1065 59.284C77.1065 59.284 80.3801 59.6374 80.3801 60.6754C80.3801 61.3819 79.1929 61.5937 78.4961 61.5937C76.8046 61.5937 75.3804 60.0878 75.3804 60.0878L73.569 61.9977L73.5691 61.9976Z" fill="#0B0500"/>
</g>
<defs>
<clipPath id="clip0_658_598">
<rect width="94" height="64" fill="white"/>
</clipPath>
</defs>
</svg>
