<svg width="160" height="68" viewBox="0 0 160 68" fill="none" xmlns="http://www.w3.org/2000/svg">
<g clip-path="url(#clip0_658_613)">
<path fill-rule="evenodd" clip-rule="evenodd" d="M26.268 23.6423C26.4259 23.5635 26.5832 23.4841 26.6624 23.4053C27.2146 23.2472 27.4511 22.5357 28.082 22.6151C28.6343 21.983 29.4231 21.9036 30.054 21.3504C30.054 21.2715 30.1332 21.1922 30.2905 21.0346C30.6849 20.7183 29.9748 20.4813 29.9748 20.4813C29.8169 20.2443 29.5012 20.4813 29.5012 20.4813C29.3433 20.5606 29.1854 20.7183 29.0276 20.7183C28.9489 21.0346 28.6332 21.0346 28.3967 21.1927C28.081 21.5085 27.6866 21.746 27.2922 21.983C26.9765 22.3781 26.5034 22.4575 26.1877 22.7732C26.1877 22.7732 25.7933 23.0102 25.6354 23.4053C25.6354 23.4053 24.8467 24.1168 25.872 23.7216L26.2664 23.6423H26.268Z" fill="#0B0500"/>
<path fill-rule="evenodd" clip-rule="evenodd" d="M25.3214 24.749C25.3214 24.8278 25.2427 24.8278 25.2427 24.8278V24.9072C24.6905 25.3023 24.3748 25.7768 24.0596 26.2507C23.6652 26.804 23.3495 27.3573 22.7186 27.7524C22.2455 27.7524 22.0085 28.2264 21.6141 28.3845C21.5354 28.3845 21.4562 28.2263 21.4562 28.1475C21.4562 28.1475 21.2197 27.6731 21.2984 27.2779C21.5349 27.1991 21.772 27.1198 21.9293 26.9616C22.1658 26.7247 22.4029 26.4877 22.6394 26.2502C23.4281 25.6181 24.1383 24.8278 24.8484 24.1957C24.8484 24.1957 25.4006 23.8794 25.3214 24.749Z" fill="#0B0500"/>
<path fill-rule="evenodd" clip-rule="evenodd" d="M25.1635 23.1685C24.2955 23.4848 23.2703 23.4848 22.6393 24.1169C22.3236 24.3538 21.7714 24.0381 21.6141 24.4332C21.6933 24.512 21.6141 24.6702 21.6141 24.7495H21.2983L21.3775 25.3816C22.1663 25.4609 22.5607 24.512 23.2708 24.4332L23.3495 24.512V24.749C23.2708 24.8278 23.1129 24.5908 22.9551 24.749C22.5607 25.1441 22.0871 25.4604 21.6141 25.6186C21.5354 25.6974 21.5354 25.9343 21.3775 25.9343L21.2983 26.8039C21.6927 26.8833 22.0084 26.567 22.3236 26.2507C22.4028 26.1718 22.4815 26.1718 22.5601 26.0925C23.2703 25.3022 24.2955 24.6702 24.8478 23.7217C24.8478 23.7217 25.0849 23.8799 25.1635 23.1685Z" fill="#0B0500"/>
<path fill-rule="evenodd" clip-rule="evenodd" d="M42.7544 23.0102C42.8331 24.1167 42.36 24.907 41.5713 25.776C40.8612 25.9342 40.0724 26.4875 39.2836 26.013C38.8101 25.7761 38.1791 26.0918 37.864 25.5385C37.7061 25.4597 37.4696 25.4597 37.3904 25.3016C37.469 25.0646 37.7848 24.9853 37.9426 24.8271C38.8893 24.9853 39.9937 25.6967 40.7825 24.9064C41.0982 24.7483 41.6505 24.6695 41.6505 24.195C41.7297 23.8787 41.7297 23.5629 42.0449 23.4048C42.2814 23.4048 42.36 23.0096 42.4392 22.7727C42.4392 22.7727 42.4393 21.9031 42.755 22.0612C42.755 22.0612 42.9915 22.3775 42.755 22.6145V23.0096L42.7544 23.0102Z" fill="#0B0500"/>
<path fill-rule="evenodd" clip-rule="evenodd" d="M36.1281 18.6632C35.8124 18.9002 35.4972 19.1377 35.418 19.2953C34.2349 19.6905 32.9725 19.9274 31.8686 19.3741C31.7107 19.1372 32.1051 19.0578 31.8686 18.742C31.9472 18.6627 32.0264 18.5839 32.1837 18.6627C32.3416 19.0578 32.8146 18.8209 33.1304 18.8997C33.6034 19.0578 33.9983 18.7415 34.3927 18.8203C34.7084 18.6621 34.8663 18.6621 35.1815 18.504H35.3393C35.3393 18.504 36.286 17.8719 36.1281 18.6621V18.6632Z" fill="#0B0500"/>
<path fill-rule="evenodd" clip-rule="evenodd" d="M60.1085 17.1623C59.5562 16.6878 59.1619 17.3205 59.1619 17.3205C59.004 17.4786 58.8461 17.6362 58.7675 17.7944C58.0574 18.1107 57.7422 19.0591 57.0321 19.3749C56.6377 19.77 56.0855 20.0863 55.6124 20.5603C54.6658 20.8766 53.4826 20.9554 52.536 21.4299C51.8259 21.6669 51.0371 21.825 50.3276 22.062C49.4596 22.6941 48.4343 22.8522 47.6456 23.4055C47.4877 23.5637 47.1725 23.6425 47.2512 23.88C47.3304 24.117 47.6456 23.9588 47.8034 24.0381C47.9613 24.1963 48.3557 24.117 48.3557 24.4333C48.1191 24.5914 47.7248 24.5914 47.8034 24.9078C48.1191 25.1447 48.5135 25.3029 48.8287 25.461C49.3023 25.7774 49.854 26.0931 50.3276 26.2513C51.1955 26.6464 52.1416 26.9627 53.0096 27.3579C53.7197 27.516 54.5085 27.5948 55.1394 27.9111C55.9281 28.1481 56.7961 28.4644 57.6635 28.6226C58.2158 28.8595 57.7422 29.334 57.8214 29.7292C57.8214 29.9661 57.5849 30.2036 57.6635 30.4406C57.2691 31.0727 57.2691 31.8629 57.2691 32.6537C57.1113 32.7325 57.1905 32.8907 57.2691 33.0489C57.1113 33.444 56.954 33.9185 56.8748 34.3924C56.7961 34.3924 56.7961 34.4712 56.7169 34.4712C56.6382 35.1826 56.6382 35.6566 56.559 36.2887C56.9534 36.4468 57.427 36.368 57.8214 36.2099C57.5849 35.7354 57.9793 35.3403 57.9006 34.7875C58.0585 34.5506 57.9793 34.2342 58.0585 33.9179C58.4528 32.7325 58.4528 31.4678 58.532 30.2036C58.532 30.0455 58.3742 29.8873 58.6107 29.7292L58.7686 29.808C58.6894 30.2824 58.8472 30.7564 58.7686 31.1515C59.0051 32.0211 58.7686 32.969 58.9264 33.9174C59.4787 34.2337 58.6899 34.8658 59.3208 35.1821C59.2422 35.4191 59.3995 35.6566 59.5573 35.7354C59.7939 35.8147 60.1096 35.6566 60.4253 35.3403C60.5045 34.4706 60.0309 33.9179 60.0309 33.1271C59.7944 32.5738 59.9523 32.0999 59.6365 31.6254C59.6365 31.1509 59.4 30.677 59.4 30.2031C59.1635 30.0449 59.2422 29.571 59.2422 29.3335C59.163 28.859 59.2422 28.1481 58.6113 27.9111C57.586 27.8318 56.5601 27.3579 55.5348 27.1209C54.9039 26.9627 54.2725 26.647 53.6416 26.4888C53.4051 26.4094 53.168 26.3306 52.9315 26.2518C52.3792 26.0937 51.7483 26.0149 51.1961 25.6985C51.1169 25.6197 50.9596 25.6197 50.8017 25.5404C50.8017 25.5404 50.723 25.5404 50.723 25.4616C50.4865 25.3822 49.1455 24.9871 48.9877 24.8295C48.7511 24.4344 49.1455 24.4344 49.1455 24.4344C49.2242 24.4344 50.3287 24.9877 50.4079 24.9877C50.6444 24.9877 50.7236 25.1458 50.8815 25.1458C51.118 25.2246 51.2758 25.304 51.5124 25.304C52.3011 25.7784 53.1691 26.0154 53.9579 26.2524C54.1944 26.3317 54.5101 26.4105 54.7466 26.4893C54.8253 26.6475 55.0624 26.6475 55.2202 26.7263C55.6933 26.8845 56.3247 26.8845 56.7977 27.2008C57.1129 27.0426 57.35 27.4378 57.5865 27.4378C58.1388 27.7541 58.7697 27.5166 59.2432 27.9122C59.6376 28.5443 59.4798 29.3346 59.7955 30.046C59.559 30.5205 60.3477 30.7575 60.032 31.2314C60.1899 31.5472 60.3477 31.9428 60.6629 32.0216C60.8994 32.1004 61.0573 32.0216 61.2152 31.8635C61.2152 31.4684 60.9786 31.2314 60.8994 30.9151C60.9781 30.3618 60.5051 29.8879 60.5837 29.3346C60.5051 29.0183 60.4258 28.5443 60.1101 28.228C59.8736 27.9122 59.4792 27.5166 59.7157 27.0426C59.6371 26.8845 59.4 27.0426 59.2427 26.9633C58.8483 26.7263 58.2961 26.6475 57.8225 26.5682C57.4281 26.3312 57.0337 26.173 56.5601 26.0149C56.0871 25.9355 55.6135 25.8567 55.2191 25.7779V25.6985C54.7455 25.9355 54.3512 25.3034 53.8781 25.2241C53.5624 24.9871 53.0101 25.2241 52.695 24.9083C52.3792 24.9083 52.0641 24.8289 51.827 24.6713C51.5113 24.6713 50.959 24.7507 50.8017 24.355C50.4865 24.1969 50.0916 24.1969 49.7764 24.118C49.6186 24.118 49.5399 24.0392 49.4607 24.0392C49.4607 23.9599 49.3028 23.9599 49.2242 23.9599C48.9877 23.9599 48.6719 23.8017 48.7511 23.7229C48.8298 23.6436 49.382 23.486 49.4612 23.486C49.5404 23.486 49.6191 23.4066 49.6978 23.4066C50.8023 22.9321 51.9854 22.6164 53.0899 22.0631C53.8787 22.1424 54.6674 21.7473 55.4562 21.7473C56.4028 21.1152 57.1124 20.0086 58.0596 19.6135C58.5331 19.2184 58.8483 18.27 59.4792 18.5863C59.7157 18.5069 59.8736 18.6651 60.1101 18.6651C60.268 18.4281 60.5837 18.1906 60.5045 17.8749C60.5832 17.6379 60.1101 17.1634 60.1101 17.1634L60.1085 17.1623ZM58.8461 4.43842C58.9253 4.43842 58.9253 4.51777 58.9253 4.67538C58.9253 5.62379 59.004 6.72981 59.3197 7.67877C59.6354 8.9435 59.872 10.1289 60.1877 11.4724C60.2663 12.0257 59.3197 12.1045 59.5568 12.6578C59.636 13.2111 59.3203 13.3692 59.0045 13.7643C59.0045 13.7643 59.3203 13.9225 59.4781 14.0807C59.4781 14.0807 59.7146 14.634 60.3461 14.397C60.3461 14.397 60.8983 14.2388 60.8197 13.7649C60.8197 13.3698 60.8983 12.8953 61.1349 12.5795C60.977 12.2632 61.2141 11.8681 60.977 11.5523C61.0562 10.8409 60.6618 10.2088 60.504 9.49733C60.504 9.02285 60.2674 8.62773 60.3461 8.2326C60.0304 7.04723 59.7939 5.94066 59.636 4.67648L59.7939 4.43951C60.1882 4.3607 60.2669 4.91399 60.5826 4.99279C60.7405 5.54608 61.3714 5.78304 61.6079 6.25752C62.5545 7.12713 63.3433 7.99618 64.0534 8.94459C65.0787 9.893 66.0253 10.6833 66.8141 11.7898C67.1293 12.0268 67.5242 11.7898 67.8394 12.0268C68.3124 11.711 69.259 11.948 69.1804 11.0784C69.2596 10.9202 69.4169 10.9202 69.5748 10.9202C69.9692 11.1572 70.4427 10.9202 70.8371 10.7621C71.8624 10.7621 72.8877 10.5251 73.8349 10.2881C74.0714 10.2881 74.15 10.13 74.0714 9.893C73.9927 9.73484 73.9135 9.65603 73.677 9.65603C72.7304 9.893 71.7051 10.2881 70.6006 10.2093L70.5219 10.1305C70.6006 9.81419 71.0742 10.0512 71.3107 9.8142C71.863 9.8142 72.7304 9.65604 73.3618 9.41907C73.8354 8.94459 74.545 9.73484 74.7815 8.94459C74.9394 8.62827 75.9646 8.62827 75.4916 8.15434C75.1759 8.07554 74.8607 7.99618 74.7028 8.39131C74.0719 8.23315 73.7562 8.86579 73.1253 8.86579C73.1253 8.86579 73.0461 8.78643 73.0461 8.70763C73.7562 8.3125 74.6236 8.15434 75.3337 7.60106C75.4129 7.52225 75.3337 7.36409 75.1759 7.36409C74.0714 7.68041 73.1253 8.23369 72.0995 8.62882C71.7837 8.78698 71.5472 9.1821 71.1528 9.1821C70.6006 9.49842 69.891 9.57723 69.4175 10.1305C69.1017 10.2093 68.8652 10.0512 68.6287 10.2093C68.313 10.0512 67.9978 9.81419 67.8399 9.49788C66.8146 8.39131 65.4736 7.4429 64.3691 6.25752C63.4225 5.54608 62.3972 4.83518 61.6085 3.88677L60.9776 3.41284C60.8197 3.41284 60.5045 3.41284 60.3466 3.64981V3.72861H59.8731C59.7944 3.64981 59.7152 3.64981 59.6365 3.57045C59.6365 3.57045 59.4 3.64981 59.1629 3.57045C59.1629 3.57045 58.7686 3.41229 58.9264 3.88677C58.9264 3.88677 59.0051 4.20309 58.8472 4.44006L58.8461 4.43842ZM67.5231 10.9191C67.2866 10.9985 67.3652 10.761 67.2074 10.6822C66.4973 10.2077 65.945 9.41798 65.3933 8.86469C65.0776 8.62773 64.8411 8.2326 64.4467 7.99509C63.4214 7.20484 62.5534 6.01892 61.6068 5.22921C61.3703 4.91289 61.0546 4.51777 60.7388 4.2808C60.6602 4.202 60.7388 4.04384 60.818 3.96503C60.9759 3.96503 61.2124 4.04384 61.1332 4.202C61.922 5.30857 63.0265 5.70369 63.9731 7.12603C64.2096 7.12603 64.131 7.20484 64.2096 7.363C65.3141 8.46957 66.5759 9.57613 67.7591 10.6822C67.7591 10.8403 67.6018 10.8403 67.5231 10.9191Z" fill="#0B0500"/>
<path fill-rule="evenodd" clip-rule="evenodd" d="M49.1438 7.75735C49.6174 7.59919 50.327 7.04591 50.7214 7.67855L50.8 7.59919C50.9579 7.59919 50.9579 7.83616 51.0366 7.91551C51.1152 7.99487 51.1152 7.83671 51.1944 7.83671C51.1944 7.52039 51.4309 7.36223 51.6675 7.12526C52.0618 6.9671 52.4562 6.73014 52.9298 6.65078C52.8506 6.41382 52.7719 6.33447 52.6141 6.25566C52.6141 6.33447 52.4562 6.41382 52.4562 6.41382C51.9826 6.49263 51.8253 7.04591 51.3517 6.9671L51.2725 6.73014C51.7461 6.41437 51.9034 5.93989 52.0613 5.54476C51.9034 5.22844 51.5091 5.54476 51.2725 5.46541C51.036 5.14909 50.6416 5.07028 50.168 5.14909C49.7737 4.67516 49.3793 4.04252 48.7484 4.04252C48.5119 3.80556 48.354 3.56804 48.354 3.25227C48.5119 2.85715 48.827 3.33108 49.0641 3.33108C50.3264 3.7262 51.4304 4.91158 52.8506 4.99093C53.0871 5.54422 53.7186 5.46486 54.1916 5.54422C54.5073 5.93934 55.0596 5.78118 55.5326 5.78118C56.1635 6.0975 56.9528 5.93934 57.5838 6.17631C57.7416 6.33447 57.7416 6.8084 58.0573 6.65078C58.2152 7.20407 58.6096 7.52039 58.7674 7.99432C59.3197 8.38944 59.0832 9.10089 59.1618 9.65363C59.241 9.96994 59.0832 10.2857 59.3983 10.602C59.3983 11.1553 59.0832 11.7086 58.5309 12.0244C58.2944 12.5777 57.5056 12.3407 57.0321 12.5777C56.6377 12.8934 56.2433 12.9728 55.9276 13.3679C55.691 13.8424 55.2967 14.3951 55.454 14.9484C55.454 15.3435 55.3753 15.6599 55.2961 15.9756C55.2175 16.4501 55.0596 16.8452 55.0596 17.3192C54.9017 17.7931 55.0596 18.5045 54.4287 18.6627C54.2708 18.5839 54.0343 18.5839 54.113 18.3464C53.7978 18.1882 54.113 17.7931 53.7978 17.6349L53.9556 16.6077C54.0348 16.3708 54.1135 16.2126 54.1922 15.9756C54.4287 15.106 54.5079 14.1582 55.1388 13.4467C55.1388 13.2098 54.9023 13.2098 54.7444 13.2098L53.4034 14.237C53.009 14.7114 52.9304 15.3435 52.8512 15.9756C52.6933 16.5289 52.6146 17.0028 52.2203 17.398C52.141 18.0301 52.5354 18.7415 52.2203 19.2948C51.9837 19.3736 51.668 19.6111 51.4315 19.3736C50.9579 18.3464 51.3528 17.161 51.7472 16.2914C51.8259 16.212 51.9051 16.0544 51.9837 15.9751C52.2995 15.343 52.2995 14.3946 53.0882 14.0783C53.0882 13.9995 53.0882 13.8413 53.0096 13.7619L52.4573 14.0783C52.2208 14.2364 51.9837 14.1576 51.7472 14.3152C51.4315 14.8685 51.0371 15.3424 50.8792 15.9751C50.1691 16.9235 50.4057 18.4252 50.0905 19.6106L49.7753 19.9263C49.6174 20.0057 49.3809 20.0057 49.3017 19.8475C49.0652 19.1361 49.3804 18.4252 49.3804 17.7137C49.4596 17.1605 49.5382 16.6072 49.9326 16.212V15.9751C50.0113 15.4218 50.6427 15.0267 50.9579 14.5527L50.8792 14.3158C50.6427 14.3158 50.6427 14.5527 50.4849 14.7109C50.0113 15.0272 49.6961 15.5011 49.3804 15.9756C49.2225 16.2126 49.0652 16.4501 48.9073 16.6077C48.4337 17.2398 48.3551 17.9513 48.1186 18.6627C47.8028 19.216 48.1978 19.9274 47.7242 20.3225C47.4877 20.4014 47.2506 20.4014 47.0141 20.3225C46.8562 20.0062 47.0141 19.6111 47.0927 19.3741C47.2506 18.8209 47.1719 18.1094 47.2506 17.6355C47.5663 17.0822 47.9607 16.5289 48.4337 15.9762C48.6703 15.7392 48.9073 15.5017 49.1438 15.2647V14.9484C48.9073 14.8696 48.7495 15.1066 48.5916 15.2647C48.4337 15.5017 48.1972 15.7392 48.0394 15.9762C46.9349 17.2404 45.7517 18.5844 46.0669 20.4807C45.8304 20.7177 45.5146 20.7177 45.2781 20.797C44.9624 20.7182 44.9624 20.3231 44.8837 20.0856C45.1995 19.2953 44.9624 18.2681 45.7517 17.7148C45.6725 17.0034 46.4618 16.7664 46.6983 16.2131C46.8562 16.2131 46.8562 16.055 47.0141 15.9762C47.0141 15.9762 47.0927 15.8968 47.1719 15.9762C47.1719 15.6599 47.3298 15.4229 47.4085 15.1859C47.3298 15.1071 47.3298 14.949 47.1719 15.0278C46.7776 15.2647 46.3832 15.581 45.9888 15.9762C45.1208 16.9246 44.4899 18.1888 44.1747 19.3747C44.0169 19.8492 44.0169 20.4813 43.7011 20.8764C43.3854 20.8764 43.0702 20.8764 42.9124 20.7182C42.7545 19.6117 43.3068 18.8214 43.6225 17.873C43.7803 17.636 43.5433 17.2409 43.7804 17.0827C44.1747 16.6876 44.4113 16.3713 44.6483 15.9762C44.964 15.6599 45.5949 15.7392 45.6736 15.2647C45.6736 14.7903 44.8848 15.0278 44.8848 15.0278C44.727 15.1859 44.3326 15.1066 44.3326 15.1066C44.1747 15.0278 44.0169 15.1066 44.0169 15.1066C43.7803 15.3435 43.1489 15.4229 42.8337 15.5017C42.7551 15.581 42.6759 15.6599 42.4393 15.9762C42.2028 16.3713 41.9658 16.8458 42.2028 17.3197C42.1242 17.9518 42.045 18.5051 42.045 19.1372C42.2028 19.5323 42.2815 20.0856 42.2815 20.5595V21.1128L42.6759 21.271C42.6759 21.271 42.4393 21.4291 42.3601 21.8242C42.1236 22.1406 42.045 22.6145 41.8871 22.9308C41.6506 23.1678 41.4927 23.4841 41.4135 23.8004C41.4135 24.5119 40.5455 24.5119 40.0725 24.7488C39.2837 24.5907 38.5736 24.5907 37.8641 24.3537C37.4697 23.9586 36.9174 24.0379 36.4444 23.8004C35.4978 23.7216 34.7877 22.9308 33.9989 22.4569C33.2888 22.0618 32.5792 21.6666 31.8691 21.1133C31.6326 20.9552 31.3169 20.8764 31.0011 20.797H30.9219C30.4484 19.8486 29.5809 20.0856 29.5809 20.0856C29.5017 20.1649 29.4231 20.1649 29.3444 20.2437C28.7922 20.7182 28.0821 20.8758 27.3725 21.1133C27.2146 21.1927 26.9781 21.2715 26.8202 21.0345C26.8989 20.4813 27.3725 20.0073 27.609 19.454C29.0287 18.9008 30.5276 19.6122 31.7899 20.2443C32.3422 20.6394 32.8944 21.1139 33.5253 21.2715C34.3933 21.8248 35.2607 22.5357 36.2073 23.0102C36.7596 23.0102 37.2326 23.2471 37.7062 23.4846C38.1006 23.6428 38.6528 23.5634 39.1259 23.8004C39.3624 23.8004 39.6781 23.9586 39.836 23.6423C40.2304 22.9308 41.177 22.6938 41.0983 21.7454C41.8871 20.797 41.0197 19.6905 41.0983 18.5844C41.3348 18.3475 41.3348 17.873 41.2562 17.5572C41.4141 17.0039 41.4927 16.53 41.6506 15.9767C41.7298 15.8186 42.2028 15.4234 42.045 15.1865C41.5714 14.9495 41.3348 15.9767 40.9405 15.8186C40.5461 15.6604 41.177 15.3441 40.7826 15.1071C40.7826 15.1071 40.1517 15.7392 39.836 15.9767C39.7573 16.0555 39.7573 16.1349 39.7573 16.1349H39.4416C38.968 16.6882 38.2584 16.6882 37.8641 17.3996C37.5483 17.3996 37.3118 17.4784 37.0753 17.6366C36.7596 17.8735 35.9708 17.8735 35.9708 17.8735C35.4972 17.8735 35.182 18.1893 35.182 18.1893C34.9455 18.2687 34.709 18.3475 34.3933 18.3475C33.841 18.7426 33.1309 18.5056 32.5 18.5056C32.1843 18.5056 32.4214 17.9523 32.0264 17.8735C31.7899 17.2414 31.5534 16.6088 31.3955 15.9767C31.3163 15.6604 31.3163 15.4234 31.2377 15.1071C30.6068 14.2375 31.0798 12.9733 30.291 12.1831C29.9753 12.1043 29.8174 11.7092 29.7388 11.3928C29.3444 11.0765 29.4236 10.5232 29.0287 10.2863C28.7922 9.57482 28.3186 9.10089 28.0034 8.46825L27.8455 8.38944C27.2933 8.70576 27.5298 9.41666 27.3719 9.96995C27.1354 10.2863 27.3719 10.6814 27.3719 11.0765C27.2933 12.1831 26.9776 13.2103 26.8197 14.3169C26.5832 14.7913 26.7405 15.5022 26.504 15.9767C26.4253 16.0555 26.3461 16.2137 26.2675 16.293C26.0309 16.3718 25.7939 16.293 25.7152 16.1349V15.9767C25.8731 14.9495 25.9517 13.9217 25.9517 12.8945C26.2675 12.4994 26.1883 11.9461 26.3461 11.551C26.4253 11.0765 26.6618 10.5238 26.4253 10.2075C25.9517 10.4444 25.8731 10.9977 25.7944 11.4722C25.5579 12.1836 25.5579 13.132 25.0057 13.7641C24.927 14.0804 24.8478 14.3962 24.4534 14.4756C23.9012 14.2386 24.5326 13.6853 24.5326 13.2114C25.0849 12.8163 24.8483 12.026 24.927 11.3939C25.0056 10.6825 25.7158 10.2086 25.8736 9.49711C25.6371 9.26014 25.3214 9.65527 25.0057 9.57646C24.4534 10.683 23.2703 10.1297 22.4815 10.7618C22.0871 11.2363 21.5349 11.2363 21.2191 11.3151C20.9826 11.0782 20.9826 10.92 21.2191 10.4455C21.5349 10.5249 21.9292 10.5249 22.1658 10.2086C22.8759 10.1297 23.4281 9.57646 23.9804 9.18134C24.4534 8.78621 25.0849 8.78621 25.5579 8.39109C25.7158 8.39109 26.0309 8.46989 26.0309 8.23293C25.4787 7.52148 26.5832 7.91661 26.741 7.44268C26.9776 6.81059 27.6877 6.96875 28.1607 6.73123C28.3186 6.65243 28.6343 6.57307 28.7916 6.73123C29.4225 6.9682 29.5804 7.67964 29.6596 8.23293C29.5809 8.39109 29.5809 8.62805 29.2652 8.54925C29.1073 8.23293 28.9495 7.91715 28.7916 7.60084C28.6338 7.68019 28.4759 7.60084 28.3972 7.759C28.2394 8.15412 28.713 8.07531 28.7916 8.31228C28.8708 8.94437 29.4225 9.02372 29.7382 9.26069L30.2118 10.2091C30.6062 10.9993 31.0798 11.869 31.395 12.738C31.9472 13.9234 32.4995 15.2669 32.736 16.6898C32.5781 17.2431 33.1304 17.5594 33.4461 17.8752C34.1562 18.0333 34.945 17.717 35.3394 17.3219C35.9703 17.1637 36.6017 17.0056 37.2326 16.7686C37.7849 16.2947 38.4158 16.0572 38.968 15.4251C39.0467 15.1088 39.1259 14.8718 39.0467 14.3979C38.968 13.6076 38.4944 14.2397 38.2579 13.7658C37.9422 13.3706 38.7315 13.3706 38.4158 12.9755C37.9422 12.1059 36.8382 12.3434 36.1281 11.869C35.5759 11.3945 35.418 10.7624 35.0236 10.2091C34.7079 9.89278 34.3135 9.97213 33.9191 9.89278C33.4461 9.73462 33.209 9.02318 32.5781 9.02318C31.9472 8.31173 31.0006 8.07477 30.3691 7.36332C30.2113 7.28452 29.7382 7.28452 29.8956 6.9682C29.3433 6.49372 28.6332 6.09859 28.1602 5.62466C27.9236 5.54586 27.6871 5.62466 27.4501 5.4665C27.3714 4.83441 26.6613 4.99257 26.2669 4.75506C25.8725 4.04362 24.8472 4.35994 24.6102 3.56969C23.5849 3.56969 22.8748 2.93759 22.0068 2.70008C21.6916 2.54192 21.3759 2.38431 21.1388 2.1468C21.1388 2.1468 21.0602 1.83103 21.2967 1.51471C21.9276 1.90983 22.5591 2.1468 23.19 2.46312C23.5843 2.46312 23.9787 2.70008 24.2945 2.77944C25.3989 2.93759 26.1877 3.96481 27.1343 4.35994C27.6866 4.20178 27.9231 4.83441 28.3967 4.99203C28.7911 5.15019 29.0276 5.62412 29.422 5.70347C29.895 6.1774 30.4473 6.33556 30.9208 6.65188C31.3152 7.12636 31.7096 7.99541 32.4197 7.83725C32.972 8.07422 33.2085 8.62751 33.6029 8.94382C34.1551 8.78566 34.5495 9.18079 34.9439 9.4183C35.0231 9.73407 35.2596 9.89223 35.4961 10.0504C35.8119 10.2874 36.0484 10.4455 35.8118 10.92C36.1276 11.2363 35.9697 10.5249 36.3641 10.6037C36.4433 10.6037 36.4433 10.683 36.4433 10.7618H36.9955C37.3899 11.0782 37.7057 11.5521 38.0208 12.0266C38.1787 12.2635 38.4152 11.7896 38.5731 12.1059C39.1253 12.1847 39.3618 12.8174 39.9141 12.8174C40.3877 12.738 40.9394 12.8962 41.413 13.0543C41.8073 13.1337 41.7287 13.5288 41.9652 13.7658C42.4388 13.45 42.9905 13.45 43.6219 13.5288C43.7006 13.5288 43.7798 13.6076 43.8585 13.687C44.332 13.9239 45.0416 13.9239 45.0416 13.9239C45.2781 14.0033 46.1461 13.9239 46.1461 13.9239C46.4618 13.8451 47.2506 13.9239 47.2506 13.9239C48.0394 13.7658 48.2759 14.0033 48.3551 14.1609C48.4337 14.2397 48.5129 14.2397 48.5916 14.3979C48.7495 14.1609 48.7495 13.8446 49.0652 13.8446C49.0652 13.9234 49.1438 13.9234 49.1438 13.9234C49.2225 14.0027 49.3017 13.9234 49.3017 13.8446C49.854 13.8446 50.0118 13.2913 50.4849 13.2125C50.7214 13.1337 50.8792 12.8174 51.1158 12.8962C51.5893 12.501 52.141 12.8962 52.6933 12.738C53.6399 12.501 54.6652 12.501 55.3753 11.7896C55.6118 11.7108 56.0062 11.869 56.1641 11.5526C56.5585 11.4733 56.9528 11.3945 57.2686 11.1575C57.8208 10.8412 57.663 10.2091 57.8208 9.73462V9.3395C57.5843 8.94437 57.8208 8.23293 57.3478 7.91715C56.7169 7.99651 56.7169 6.96875 56.0068 7.04755C55.5332 7.12691 55.0601 6.88939 54.5079 6.96875C53.7191 7.60084 52.3781 7.91716 52.1416 9.10253C51.9051 9.26069 51.5893 9.41885 51.7472 9.81397C51.668 9.89278 51.5107 10.0509 51.2736 9.97213C50.9579 9.81397 51.1158 9.34004 51.0371 9.10253C51.195 8.86556 51.195 8.54925 51.195 8.31228L51.0371 8.39163C50.7214 8.6286 50.4062 8.47044 50.2483 8.23347C49.7753 8.54979 49.4596 8.94492 48.9073 9.10308C48.5129 8.94492 48.1186 8.78676 47.8028 8.54979C47.4877 8.6286 47.2506 8.31283 47.0141 8.54979C46.6983 8.23347 46.4618 7.75954 46.2253 7.36442H46.3045C46.1466 7.36442 45.9888 7.20626 46.068 7.12745C46.068 7.12745 46.1472 7.0481 46.2259 7.12745C45.7528 6.57417 45.5157 5.94208 45.5157 5.30944C45.2006 4.75615 45.2006 4.04471 44.8848 3.49197C44.0961 2.62237 43.8596 1.51635 43.4652 0.567939C43.5438 0.252168 43.7803 -0.0641514 44.0961 0.0146547C44.6483 0.489133 45.3584 0.489133 45.9107 0.804905C45.9893 0.963064 46.2259 1.20003 45.9107 1.27884C45.5949 1.12068 45.0427 1.5158 44.8062 0.963064C44.6483 0.963064 44.4905 1.04187 44.4118 1.20003C44.4118 1.35819 44.5697 1.59515 44.8062 1.67451C44.964 2.22779 45.4371 2.70172 45.5163 3.25501C45.9107 3.41317 45.6742 3.96645 46.0685 4.12461C45.9107 4.44038 46.2264 4.6779 46.1477 5.07302C46.4635 5.23118 46.3843 5.70511 46.7 5.94262C46.9365 6.81223 47.4101 7.68128 48.1989 8.07641C48.3567 8.07641 48.514 7.9976 48.6719 7.91825H48.5932C48.5932 7.91825 48.909 7.76009 49.1455 7.76009L49.1438 7.75735Z" fill="#0B0500"/>
<path fill-rule="evenodd" clip-rule="evenodd" d="M47.9607 6.65085C47.9607 6.65085 47.9607 6.5715 47.882 6.5715V6.33453C48.2764 5.78125 48.5129 6.49269 48.9865 6.41389C48.9865 5.93941 48.6708 5.38667 48.1186 5.14916C48.1186 4.83339 47.5663 4.75403 47.4876 4.35891C47.1719 4.35891 47.0933 3.88443 46.7775 3.96378C46.6197 4.04259 46.304 4.12194 46.304 4.35891C46.6983 5.14916 46.9349 6.17637 47.4871 6.88782C47.4871 6.88782 48.2764 7.28294 47.9607 6.65085Z" fill="#0B0500"/>
<path fill-rule="evenodd" clip-rule="evenodd" d="M37.627 47.7466V52.0147L40.2298 47.7466H37.627Z" fill="#0B0500"/>
<path fill-rule="evenodd" clip-rule="evenodd" d="M36.6803 61.2613C36.4438 61.8146 36.2067 62.4467 36.2067 62.4467C34.9444 62.763 33.209 63 31.9472 63C27.214 63 24.1376 60.0759 24.2168 55.8084C24.2955 51.2245 27.3719 48.6168 32.0264 48.6956C33.841 48.6956 35.4185 49.2489 35.8915 49.3277H36.3646C36.3646 49.3277 36.2859 49.9598 36.3646 50.5924C36.4438 51.3038 36.6803 52.0147 36.6803 52.6468C36.6803 52.805 36.5224 52.568 36.5224 52.568C36.1281 50.9082 33.446 49.8022 31.9472 49.8022C28.3977 49.8022 26.0309 52.0941 26.0309 55.8084C26.1101 58.8118 28.3972 61.7358 31.7106 61.7358C33.5247 61.7358 35.5758 61.2613 36.759 59.7602L37.0747 59.9971C37.0747 59.9971 36.9168 60.5499 36.6803 61.2613Z" fill="#0B0500"/>
<path fill-rule="evenodd" clip-rule="evenodd" d="M55.218 54.7806H58.2944C58.9253 54.7806 60.1877 54.86 60.5034 54.7806C60.7399 54.7018 60.8978 54.4649 60.9764 54.5437C61.0556 54.5437 61.0556 54.6225 61.0556 54.6225V56.5981C60.9764 56.5981 60.9764 56.5187 60.6613 56.3611C60.2669 56.2823 58.9259 56.2823 58.295 56.2823H55.2185V61.1032H59.5568C60.1877 61.1032 60.8978 61.0244 61.2135 60.945C61.45 60.7869 61.6865 60.5499 61.7657 60.6293C61.8444 60.6293 61.7657 60.7081 61.7657 60.7081C61.7657 61.1825 61.6865 61.6565 61.6079 62.2886V62.6837H54.2719C53.641 62.6837 53.5618 62.763 53.0888 62.763C53.0888 62.763 53.0101 62.763 52.9309 62.6837C52.9309 62.6049 53.0096 62.6837 53.1674 62.2886C53.4039 61.8934 53.4039 61.182 53.4039 60.5499V51.0664C53.4039 50.4343 53.4039 49.7228 53.1674 49.3277C53.0096 48.9326 52.9309 49.0119 52.9309 48.9326C53.0096 48.8538 53.0888 48.8538 53.0888 48.8538C53.5624 48.8538 53.641 48.9326 54.2719 48.9326H61.3714V50.75C61.3714 50.75 61.45 50.8294 61.3714 50.8294C61.2922 50.9082 61.1348 50.6712 60.8978 50.5924C60.582 50.5131 59.8725 50.4343 59.3202 50.4343L55.2185 50.3549L55.218 54.7806Z" fill="#0B0500"/>
<path fill-rule="evenodd" clip-rule="evenodd" d="M6.94158 48.8532C6.94158 48.8532 10.3337 56.8351 11.9112 60.313C12.3056 61.2614 12.7792 62.1304 12.9365 62.2886C13.2522 62.6837 13.3309 62.6837 13.3309 62.6837H11.5169C10.8859 62.6837 10.5702 62.7631 10.5702 62.6837C10.7281 62.3674 10.6494 61.9723 10.4916 61.4983C10.4124 61.4195 10.1758 60.7869 10.0972 60.5499C8.99269 58.0998 6.70505 52.6469 6.70505 52.6469C6.54719 52.3305 6.6264 52.3305 6.46853 52.6469C6.46853 52.6469 4.1809 58.0998 3.0764 60.5499C2.9972 60.7869 2.76068 61.4195 2.68202 61.4983C2.52416 61.9728 2.4455 62.3679 2.60336 62.6837C2.60336 62.7631 2.36684 62.6837 1.8146 62.6837H0L0.315725 62.2886C0.473587 62.1304 0.946628 61.2614 1.42022 60.313C2.91909 56.8356 6.38988 48.8532 6.38988 48.8532C6.54774 48.4581 6.70505 48.4581 6.94158 48.8532Z" fill="#0B0500"/>
<path fill-rule="evenodd" clip-rule="evenodd" d="M45.5943 50.5132V60.4712C45.5943 61.1033 45.5943 61.8147 45.4365 62.2099L45.2 62.605C45.2 62.6838 45.3578 62.6838 45.3578 62.6838C45.8314 62.6838 45.9101 62.605 46.6202 62.605C47.1724 62.605 47.3303 62.6838 47.8033 62.6838C47.8033 62.6838 47.8825 62.6838 47.8825 62.605C47.8825 62.5262 47.7247 62.4468 47.646 62.1305C47.4881 61.8935 47.4881 61.1033 47.4881 60.4707V50.5126H49.4601C50.091 50.5126 51.1954 50.592 51.432 50.6708C51.7477 50.7496 51.8264 50.9871 51.9056 50.9078C51.9842 50.9078 51.9842 50.8289 51.9842 50.8289V48.9321H40.7039C40.7039 49.4854 40.6247 50.4338 40.6247 50.9078C40.6247 50.9078 40.546 50.9871 40.6247 50.9871C40.7039 51.0659 40.8612 50.8289 41.0983 50.7501C41.414 50.6713 42.5971 50.5132 43.228 50.5132H45.5943Z" fill="#0B0500"/>
<path fill-rule="evenodd" clip-rule="evenodd" d="M78.4089 55.966V59.7596C78.4089 60.3917 78.3297 61.8934 78.1724 62.2885C78.0146 62.6049 77.9359 62.6049 77.9359 62.6837C77.9359 62.7625 78.0938 62.6837 78.0938 62.6837H80.6179C80.6179 62.6837 80.6971 62.763 80.6971 62.6837C80.7758 62.6049 80.5393 62.4467 80.4606 62.2097C80.3819 61.8934 80.3027 61.1032 80.3027 60.5499V55.966C80.3027 55.966 84.4836 49.4065 84.7988 49.3271C85.2724 49.2483 85.4297 48.932 85.4297 48.932H83.6943C83.0634 48.932 82.432 48.8532 82.432 48.932C82.5898 49.2483 82.5106 49.5641 82.2741 50.0386C82.0376 50.4337 79.6707 54.1485 79.5134 54.3061C79.3556 54.148 76.9101 50.5125 76.6735 50.0386C76.3578 49.6434 76.3578 49.2483 76.437 48.932C76.5157 48.932 75.6483 49.0113 75.0168 49.0113C74.4646 49.0113 73.2028 48.932 73.2028 48.932C73.2028 48.932 73.3606 48.932 73.755 49.3271C74.1494 49.6434 78.4089 55.966 78.4089 55.966Z" fill="#0B0500"/>
<path fill-rule="evenodd" clip-rule="evenodd" d="M90.8724 55.6502C90.8724 55.6502 95.132 61.9727 95.5264 62.289C95.9208 62.6841 96 62.6841 96 62.6841C96 62.6841 94.8168 62.6053 94.2646 62.6053C93.6337 62.6053 92.7657 62.6841 92.7657 62.6841C92.9236 62.3678 92.8444 61.9727 92.6078 61.5776C92.3713 61.1031 90.0045 57.4682 89.8466 57.31C89.6887 57.4682 87.3224 61.1036 87.0859 61.5776C86.8494 61.9727 86.7702 62.3678 86.9281 62.6841C86.9281 62.6841 86.218 62.6053 85.5871 62.6053C85.0348 62.6053 83.7725 62.6841 83.7725 62.6841C83.7725 62.6841 83.9303 62.6841 84.3247 62.289C84.7191 61.9727 88.9 55.8083 88.9 55.8083C88.9 55.8083 84.8769 49.5651 84.3247 49.2488C83.8517 49.0118 83.9303 48.9325 83.9303 48.9325H85.5871C86.218 48.9325 87.0859 48.8537 87.0067 48.9325C86.9275 49.2488 86.9275 49.6439 87.2432 50.0391C87.4798 50.4342 89.7674 53.9909 89.9253 54.149C90.0831 53.9909 92.3708 50.5135 92.6073 50.1184C92.9225 49.6439 92.9225 49.2488 92.8438 48.933C92.8438 48.8542 93.6326 48.933 94.2635 48.933H95.9202C95.9202 48.933 95.6045 49.0912 95.2893 49.4075C94.8949 49.7238 90.8719 55.6507 90.8719 55.6507L90.8724 55.6502Z" fill="#0B0500"/>
<path fill-rule="evenodd" clip-rule="evenodd" d="M67.918 56.4405C67.918 56.4405 71.3101 61.3401 71.6253 61.7353C71.9411 62.2886 72.6506 62.9206 73.7551 62.9206H74.8596C74.8596 62.9206 74.7804 62.8413 74.386 62.5255C73.6759 61.8934 70.2051 56.9144 70.2051 56.9144C71.704 56.2823 73.3602 55.2546 73.2815 52.9632C73.2023 49.644 70.9152 48.7744 67.4439 48.9326H65.5506C64.9197 48.9326 64.6827 48.8538 64.2096 48.8538C64.2096 48.8538 64.1304 48.8538 64.0518 48.9326C64.0518 49.0119 64.2096 49.0907 64.2096 49.0907C64.5253 49.4859 64.5253 51.3827 64.5253 52.0148V60.4711C64.5253 61.1032 64.5253 61.8934 64.3675 62.2886C64.2098 62.4994 64.131 62.6311 64.131 62.6837C64.131 62.763 64.2102 62.6837 64.2102 62.6837H66.7343C66.7343 62.6837 66.8135 62.763 66.8922 62.6837C66.8922 62.6049 66.7343 62.4467 66.5765 62.2098C66.4978 61.8934 66.4186 61.1032 66.4186 60.4711V50.5131C66.4186 49.881 66.7343 49.8016 67.5231 49.8016C70.2051 49.8016 71.3883 51.1452 71.3883 53.1208C71.3883 55.2546 70.2051 56.2818 67.9175 56.4399L67.918 56.4405Z" fill="#0B0500"/>
<path fill-rule="evenodd" clip-rule="evenodd" d="M17.2753 56.4405C17.2753 56.4405 20.7461 61.3401 20.9832 61.7353C21.3775 62.2886 22.0084 62.9206 23.1916 62.9206H24.2169C24.2169 62.9206 24.1382 62.8413 23.8225 62.5255C23.1124 61.8934 19.6416 56.9144 19.6416 56.9144C21.1405 56.2823 22.7967 55.2546 22.718 52.9632C22.5601 49.644 20.3517 48.7744 16.8809 48.9326H14.9877C14.2776 48.9326 14.1197 48.8538 13.568 48.8538C13.568 48.8538 13.4893 48.8538 13.4893 48.9326C13.4101 49.0119 13.6472 49.0907 13.6472 49.0907C13.8837 49.4859 13.8837 51.3827 13.8837 52.0148C13.8837 53.2789 13.9629 59.5227 13.9629 60.4711C13.9629 61.1032 13.8837 61.8934 13.7264 62.2886C13.5685 62.6049 13.4899 62.6049 13.4899 62.6837C13.5685 62.763 13.6477 62.6837 13.6477 62.6837H16.0932C16.0932 62.6837 16.2511 62.763 16.2511 62.6837C16.2511 62.6043 16.0932 62.4467 16.0146 62.2098C15.8567 61.8934 15.8567 61.1032 15.8567 60.4711V50.5131C15.8567 49.881 16.1725 49.8016 16.9612 49.8016C19.564 49.8016 20.7477 51.1452 20.8264 53.1208C20.8264 55.2546 19.6432 56.2818 17.2764 56.4399L17.2753 56.4405Z" fill="#0B0500"/>
<path fill-rule="evenodd" clip-rule="evenodd" d="M36.1281 51.7773C36.1281 51.7773 36.759 52.8839 36.6016 51.8567C36.3651 50.1968 36.8382 52.7263 36.8382 52.7263L36.5224 52.8051L36.1281 51.7773Z" fill="#0B0500"/>
</g>
<defs>
<clipPath id="clip0_658_613">
<rect width="96" height="63" fill="white"/>
</clipPath>
</defs>
</svg>
