<svg width="160" height="68" viewBox="0 0 160 68" fill="none" xmlns="http://www.w3.org/2000/svg">
<g clip-path="url(#clip0_658_738)">
<mask id="mask0_658_738" style="mask-type:luminance" maskUnits="userSpaceOnUse" x="0" y="0" width="120" height="50">
<path d="M0 0H120V50H0V0Z" fill="white"/>
<path d="M4.98627 4.98584H115.014V44.967H4.98627V4.98584Z" fill="black"/>
</mask>
<g mask="url(#mask0_658_738)">
<path d="M0 0H120V50H0V0Z" fill="#0B0500"/>
</g>
<path d="M11.0545 18.6265V31.3734H14.4414V25.776H21.7327V31.3734H25.1666V18.6265H21.7327V23.2361H14.4414V18.6265H11.0545Z" fill="#0B0500"/>
<path d="M35.9388 28.6923C38.1027 28.6923 39.608 27.8456 39.608 26.0583V18.6265H43.0419V26.5757C43.0419 29.8682 39.7021 31.6086 35.8918 31.6086C32.0815 31.6086 28.9298 29.8682 28.9298 26.5757V18.6265H32.3638V26.0583C32.3167 27.8456 33.775 28.6923 35.9388 28.6923Z" fill="#0B0500"/>
<path d="M63.2223 18.6265V21.3075H68.1145V31.3734H71.5484V21.3075H76.4406V18.6265H63.2223ZM91.3054 18.6265V21.3075H82.2266V23.2361H89.8471V25.8231H82.2266V28.6923H91.3054V31.3734H78.7927V18.6265H91.3054Z" fill="#0B0500"/>
<path d="M103.912 23.9416H97.797V21.1194H103.912C105.559 21.1664 105.559 23.9416 103.912 23.9416ZM105.417 26.4345C107.487 26.1523 108.522 24.5531 108.522 22.3894C108.522 20.2727 106.735 18.6265 104.618 18.6265H94.316V31.3734H97.7499V26.5286H101.231L105.088 31.3734H109.369L105.417 26.4345Z" fill="#0B0500"/>
<path d="M46.7581 18.6265H50.4273L57.4363 27.3283V18.6265H60.8702V31.3734H56.9188L50.1921 23.0479V31.3734H46.7581V18.6265Z" fill="#0B0500"/>
</g>
<defs>
<clipPath id="clip0_658_738">
<rect width="120" height="50" fill="white"/>
</clipPath>
</defs>
</svg>
