<svg width="160" height="68" viewBox="0 0 160 68" fill="none" xmlns="http://www.w3.org/2000/svg">
<path fill-rule="evenodd" clip-rule="evenodd" d="M12.0848 41.4339L10.9314 38.0185L9.79098 41.4339H12.0848ZM10.043 35.751H11.9256L15.4793 45.2755H13.3577L12.6018 43.0743H9.28705L8.53115 45.2755H6.48926L10.043 35.751Z" fill="#0B0500"/>
<path fill-rule="evenodd" clip-rule="evenodd" d="M19.351 35.7512H21.3263V41.4204C21.3263 42.2299 21.4683 42.8295 21.7506 43.2211C22.034 43.6126 22.5071 43.8081 23.1697 43.8081C23.8329 43.8081 24.3035 43.6126 24.5817 43.2211C24.8604 42.8295 24.9994 42.2299 24.9994 41.4204V35.7512H26.9753V41.4204C26.9753 42.1408 26.8868 42.7589 26.7097 43.2743C26.5332 43.7902 26.2812 44.2152 25.9544 44.5482C25.627 44.8818 25.227 45.1263 24.754 45.2824C24.2816 45.4372 23.7485 45.5155 23.1566 45.5155C22.5552 45.5155 22.018 45.4354 21.5456 45.2758C21.0725 45.1156 20.6726 44.8687 20.3458 44.5351C20.0183 44.2015 19.7705 43.7729 19.6029 43.248C19.4347 42.7231 19.351 42.1007 19.351 41.3803V35.7512Z" fill="#0B0500"/>
<path fill-rule="evenodd" clip-rule="evenodd" d="M31.0256 37.4718H28.1749V35.7512H35.8653V37.4718H33.0146V45.2752H31.0256V37.4718Z" fill="#0B0500"/>
<path fill-rule="evenodd" clip-rule="evenodd" d="M41.0632 41.4339L39.9097 38.0185L38.7694 41.4339H41.0632ZM39.0213 35.751H40.904L44.4576 45.2755H42.3361L41.5802 43.0743H38.2654L37.5095 45.2755H35.4677L39.0213 35.751Z" fill="#0B0500"/>
<path fill-rule="evenodd" clip-rule="evenodd" d="M56.6033 41.9809C56.5587 42.4879 56.4417 42.9566 56.2521 43.3882C56.0619 43.8198 55.8011 44.1923 55.4695 44.5085C55.1385 44.8242 54.7314 45.0711 54.2494 45.2486C53.7675 45.4262 53.2089 45.5153 52.5724 45.5153C51.8564 45.5153 51.2264 45.3957 50.6827 45.1554C50.1389 44.9156 49.6837 44.5779 49.3171 44.1415C48.9504 43.7056 48.6741 43.1789 48.4887 42.5608C48.3027 41.9432 48.21 41.2605 48.21 40.5132C48.21 39.7397 48.3116 39.0456 48.5148 38.4328C48.7181 37.8188 49.0098 37.2939 49.3902 36.8587C49.7699 36.4229 50.2299 36.0893 50.7689 35.8586C51.3084 35.6272 51.9181 35.5112 52.5992 35.5112C53.2 35.5112 53.7235 35.5872 54.1704 35.7378C54.6167 35.8891 54.9923 36.1073 55.2971 36.3912C55.602 36.6758 55.8474 37.0184 56.0328 37.4189C56.2188 37.8188 56.3555 38.2684 56.4441 38.7658L54.4818 39.0193C54.3843 38.4591 54.1966 38.0185 53.9184 37.6987C53.6397 37.3788 53.2 37.2186 52.5992 37.2186C51.8385 37.2186 51.2615 37.5056 50.8687 38.0789C50.4753 38.6528 50.2786 39.4641 50.2786 40.5132C50.2786 41.5714 50.4883 42.3856 50.9079 42.9542C51.328 43.5239 51.8914 43.8079 52.5992 43.8079C53.2089 43.8079 53.6576 43.6506 53.9446 43.3344C54.2316 43.0187 54.4111 42.5674 54.4818 41.9809H56.6033Z" fill="#0B0500"/>
<path fill-rule="evenodd" clip-rule="evenodd" d="M61.0849 43.9949C61.6156 43.9949 62.0108 43.8036 62.2716 43.421C62.5319 43.0389 62.6627 42.4919 62.6627 41.7805C62.6627 41.0697 62.5319 40.5269 62.2716 40.1533C62.0108 39.7796 61.6156 39.5931 61.0849 39.5931C60.5542 39.5931 60.1591 39.7796 59.8982 40.1533C59.6373 40.5269 59.5072 41.0697 59.5072 41.7805C59.5072 42.5009 59.6349 43.0497 59.8916 43.4275C60.1478 43.8066 60.5459 43.9949 61.0849 43.9949ZM61.0849 45.4894C59.9713 45.4894 59.1096 45.1684 58.4993 44.5287C57.8896 43.8885 57.5841 42.972 57.5841 41.7805C57.5841 41.212 57.6661 40.6979 57.8296 40.2405C57.993 39.782 58.2277 39.3952 58.5326 39.0795C58.8374 38.7633 59.2065 38.5212 59.6397 38.352C60.0729 38.184 60.5542 38.0991 61.0849 38.0991C61.6239 38.0991 62.1106 38.184 62.5432 38.352C62.9764 38.5212 63.3455 38.7633 63.6509 39.0795C63.9558 39.3952 64.1876 39.782 64.3474 40.2405C64.5061 40.6979 64.5857 41.212 64.5857 41.7805C64.5857 42.3586 64.5037 42.8763 64.3403 43.3349C64.1769 43.7928 63.9427 44.1814 63.6379 44.5018C63.3324 44.8217 62.9634 45.0668 62.5302 45.2354C62.097 45.4039 61.6156 45.4894 61.0849 45.4894Z" fill="#0B0500"/>
<path fill-rule="evenodd" clip-rule="evenodd" d="M65.9911 38.3128H67.7947V39.246C68.0502 38.855 68.3509 38.5657 68.6956 38.3791C69.0408 38.192 69.4034 38.0994 69.7831 38.0994C70.287 38.0994 70.6982 38.2016 71.0162 38.4061C71.3347 38.6105 71.5599 38.9082 71.6924 39.2998C72.011 38.8724 72.3467 38.5657 72.7003 38.3791C73.0539 38.192 73.4431 38.0994 73.8674 38.0994C74.5835 38.0994 75.1207 38.2972 75.4785 38.6924C75.8362 39.0888 76.0151 39.7308 76.0151 40.6198V45.2757H74.1592V40.8739C74.1592 40.6246 74.1366 40.4225 74.0927 40.2665C74.0481 40.111 73.9893 39.9891 73.9138 39.8994C73.8383 39.8115 73.748 39.7488 73.6416 39.7135C73.5358 39.6776 73.4253 39.6597 73.3106 39.6597C73.1246 39.6597 72.9541 39.6908 72.8002 39.7529C72.645 39.8157 72.4929 39.9221 72.3426 40.0728C72.219 40.1977 72.1191 40.34 72.0442 40.5002C71.9688 40.6598 71.9313 40.829 71.9313 41.0072V45.2757H70.0755V40.8739C70.0755 40.6246 70.0529 40.4225 70.0089 40.2665C69.9649 40.111 69.9049 39.9891 69.83 39.8994C69.7545 39.8115 69.6642 39.7488 69.5584 39.7135C69.4521 39.6776 69.3409 39.6597 69.2263 39.6597C69.0408 39.6597 68.8703 39.6908 68.7158 39.7529C68.5607 39.8157 68.4086 39.9221 68.2588 40.0728C68.1346 40.1977 68.0353 40.3466 67.9605 40.52C67.885 40.6933 67.847 40.8828 67.847 41.0873V45.2757H65.9911V38.3128Z" fill="#0B0500"/>
<path fill-rule="evenodd" clip-rule="evenodd" d="M79.4364 41.8471C79.4364 42.3009 79.4739 42.6632 79.5488 42.9346C79.6236 43.206 79.7455 43.426 79.9136 43.5946C80.0901 43.7548 80.269 43.8594 80.4508 43.9084C80.6321 43.9575 80.8151 43.9814 81.0011 43.9814C81.2044 43.9814 81.3993 43.9413 81.5847 43.8618C81.7701 43.7811 81.9311 43.655 82.0684 43.4816C82.2051 43.3082 82.3133 43.0834 82.3935 42.8078C82.4725 42.5322 82.5123 42.1987 82.5123 41.8077C82.5123 41.3982 82.4749 41.0562 82.4 40.78C82.3252 40.505 82.2212 40.2796 82.0886 40.1063C81.9555 39.9329 81.7986 39.8091 81.6174 39.7326C81.4367 39.6573 81.2442 39.6196 81.041 39.6196C80.8104 39.6196 80.6119 39.6507 80.4443 39.7135C80.2761 39.7757 80.1127 39.8731 79.9534 40.0064C79.7764 40.1756 79.6462 40.3884 79.5624 40.6467C79.478 40.905 79.4364 41.2338 79.4364 41.6343V41.8471ZM77.5936 38.3128H79.3966V39.2328C79.9267 38.4772 80.6517 38.0994 81.5716 38.0994C82.5349 38.0994 83.2552 38.4282 83.7324 39.0864C84.2102 39.7446 84.4484 40.6467 84.4484 41.7939C84.4484 42.3457 84.3801 42.8479 84.2428 43.301C84.1062 43.7548 83.9071 44.144 83.6462 44.468C83.3853 44.7932 83.0698 45.0443 82.6983 45.2219C82.3269 45.4 81.9068 45.4891 81.4385 45.4891C81.0938 45.4891 80.7515 45.4263 80.411 45.3026C80.0711 45.1776 79.7502 44.9289 79.4495 44.5553V47.8631H77.5936V38.3128Z" fill="#0B0500"/>
<path fill-rule="evenodd" clip-rule="evenodd" d="M89.9243 42.1671L89.1025 42.2071C88.7132 42.2257 88.3994 42.2657 88.1606 42.3279C87.9223 42.3895 87.7386 42.4678 87.6103 42.5604C87.4819 42.6543 87.3963 42.7631 87.3523 42.8875C87.3078 43.0124 87.2858 43.1505 87.2858 43.3012C87.2858 43.5325 87.3654 43.7149 87.5247 43.8482C87.6834 43.9815 87.9044 44.0484 88.1873 44.0484C88.6645 44.0484 89.0531 43.9372 89.3538 43.7148C89.522 43.5899 89.6593 43.4327 89.7651 43.2408C89.8708 43.0501 89.9243 42.8121 89.9243 42.5276V42.1671ZM89.9641 44.3952C89.6902 44.7066 89.383 44.9595 89.0424 45.155C88.7019 45.3511 88.2622 45.4491 87.7232 45.4491C87.4136 45.4491 87.12 45.4091 86.8419 45.3284C86.5626 45.2489 86.3195 45.1239 86.1121 44.9553C85.9041 44.7862 85.7383 44.5709 85.6153 44.3079C85.4911 44.046 85.4293 43.7328 85.4293 43.3681C85.4293 42.8875 85.5351 42.4965 85.7473 42.194C85.96 41.8921 86.2381 41.6559 86.5828 41.4868C86.9275 41.3182 87.3143 41.1986 87.7434 41.1269C88.1718 41.0563 88.6068 41.0115 89.049 40.9936L89.9374 40.9535V40.6062C89.9374 40.1799 89.8203 39.887 89.5862 39.7262C89.352 39.5659 89.0757 39.4864 88.7578 39.4864C88.0233 39.4864 87.6037 39.7662 87.498 40.3264L85.8007 40.1667C85.9243 39.4374 86.2429 38.9107 86.7551 38.5861C87.268 38.2615 87.9573 38.0989 88.8238 38.0989C89.3538 38.0989 89.8049 38.1634 90.1763 38.2926C90.5477 38.4217 90.846 38.6058 91.0718 38.8456C91.2965 39.0859 91.4605 39.3776 91.5621 39.7196C91.6637 40.0621 91.7148 40.4465 91.7148 40.8734V45.2758H89.9641V44.3952Z" fill="#0B0500"/>
<path fill-rule="evenodd" clip-rule="evenodd" d="M93.2925 38.3128H95.0955V39.2729C95.3694 38.864 95.6939 38.5657 96.0701 38.3791C96.4456 38.192 96.8367 38.0994 97.2437 38.0994C98.0305 38.0994 98.6135 38.3062 98.9938 38.7193C99.3736 39.133 99.5637 39.7846 99.5637 40.6736V45.2757H97.7072V40.9271C97.7072 40.438 97.6151 40.1045 97.4291 39.9263C97.2437 39.7488 96.9959 39.6597 96.6869 39.6597C96.448 39.6597 96.243 39.695 96.0701 39.7661C95.8977 39.8372 95.7367 39.9395 95.5857 40.0728C95.4621 40.1977 95.3587 40.3466 95.2743 40.52C95.1905 40.6933 95.1484 40.8828 95.1484 41.0873V45.2757H93.2925V38.3128Z" fill="#0B0500"/>
<path fill-rule="evenodd" clip-rule="evenodd" d="M101.327 46.2624C101.584 46.3335 101.844 46.3694 102.11 46.3694C102.357 46.3694 102.556 46.309 102.707 46.1895C102.857 46.0687 102.985 45.8577 103.091 45.5552L103.303 44.9687L100.426 38.3125H102.574L104.192 42.8877L105.703 38.3125H107.732L104.934 45.4756C104.775 45.8756 104.625 46.2247 104.483 46.523C104.341 46.8202 104.181 47.0701 103.999 47.2691C103.818 47.4694 103.602 47.6189 103.35 47.7163C103.098 47.8138 102.786 47.8634 102.415 47.8634C102.185 47.8634 101.957 47.8472 101.732 47.8161C101.506 47.7851 101.27 47.7301 101.022 47.6494L101.327 46.2624Z" fill="#0B0500"/>
<path fill-rule="evenodd" clip-rule="evenodd" d="M6.36194 7.44263L15.6794 22.0146L17.5965 19.0165L10.1961 7.44263H6.36194Z" fill="#0B0500"/>
<path fill-rule="evenodd" clip-rule="evenodd" d="M18.8981 16.987L25.0012 7.44214H21.1545L16.9745 13.9788L18.8981 16.987Z" fill="#0B0500"/>
<path fill-rule="evenodd" clip-rule="evenodd" d="M9.71371 26.2347H6.36206V11.5061L9.71371 16.752V26.2347Z" fill="#0B0500"/>
<path fill-rule="evenodd" clip-rule="evenodd" d="M21.6493 26.2347H25.0009V11.5061L21.6493 16.752V26.2347Z" fill="#0B0500"/>
<path fill-rule="evenodd" clip-rule="evenodd" d="M28.3287 7.44238H40.1427V10.6419H31.8379V15.1878H39.2846V18.3115H31.8379V23.0349H40.2692V26.235H28.3287V7.44238Z" fill="#0B0500"/>
<path fill-rule="evenodd" clip-rule="evenodd" d="M50.1215 22.8827C53.6051 22.8827 56.205 20.4699 56.205 16.813C56.205 13.2069 53.6051 10.7946 50.1215 10.7946H46.8144V22.8827H50.1215ZM43.3059 7.44263H50.2225C55.2963 7.44263 59.7646 10.9722 59.7646 16.813C59.7646 22.7051 55.2963 26.2347 50.2225 26.2347H43.3059V7.44263Z" fill="#0B0500"/>
<path fill-rule="evenodd" clip-rule="evenodd" d="M62.6199 26.235H66.129V7.44238H62.6199V26.235Z" fill="#0B0500"/>
<path fill-rule="evenodd" clip-rule="evenodd" d="M78.9346 19.8607L76.2842 12.0387L73.6332 19.8607H78.9346ZM84.7911 26.2347H81.1055L79.8938 22.6543H72.6741L71.4624 26.2347H67.9539L74.6179 7.44263H78.152L84.7911 26.2347Z" fill="#0B0500"/>
<path fill-rule="evenodd" clip-rule="evenodd" d="M86.6691 7.44238H90.1782V23.0349H98.7076L96.6521 26.235H86.6691V7.44238Z" fill="#0B0500"/>
<path fill-rule="evenodd" clip-rule="evenodd" d="M100.29 26.235H103.799V7.44238H100.29V26.235Z" fill="#0B0500"/>
<path fill-rule="evenodd" clip-rule="evenodd" d="M107.58 7.44238H110.508L118.511 20.0637V7.44238H121.817V26.235H118.914L110.912 13.6131V26.235H107.58V7.44238Z" fill="#0B0500"/>
<path fill-rule="evenodd" clip-rule="evenodd" d="M129.168 16.1643L134.749 7.44263H138.576L132.577 16.8243L139.468 26.2347H135.384L129.168 17.8657V26.2347H125.659V7.44263H129.168V16.1643Z" fill="#0B0500"/>
</svg>
