<svg width="160" height="68" viewBox="0 0 160 68" fill="none" xmlns="http://www.w3.org/2000/svg">
<path d="M12.8392 14.6805C12.8392 11.9835 10.8701 10.0889 8.45059 10.0889C6.03109 10.0889 4.06194 12.0165 4.06194 14.6805C4.06194 17.313 6.03109 19.2705 8.45059 19.2705C10.873 19.2705 12.8392 17.3775 12.8392 14.6805ZM12.8746 22.7056V20.6191C11.681 22.0636 9.90318 22.9606 7.77655 22.9606C3.35551 22.9606 0 19.4295 0 14.6805C0 9.96145 3.48355 6.36741 7.87515 6.36741C9.94144 6.36741 11.6825 7.26742 12.876 8.67743V6.65541H16.8453V22.7056H12.8746ZM36.1218 19.1415C34.7325 19.1415 34.3469 18.6285 34.3469 17.2815V10.1549H36.8974V6.65391H34.3469V2.73887H30.2791V6.65391H25.0398V5.6789C25.0398 4.32889 25.5578 3.81438 26.978 3.81438H27.8699V0.701853H25.9125C22.557 0.701853 20.9764 1.79386 20.9764 5.1314V6.65241H18.7173V10.1549H20.9764V22.7041H25.0442V10.1549H30.2835V18.0195C30.2835 21.2941 31.5403 22.7071 34.8311 22.7071H36.9298V19.143H36.1203L36.1218 19.1415ZM50.708 13.2345C50.418 11.1495 48.7064 9.89695 46.7064 9.89695C44.7048 9.89695 43.0595 11.1165 42.6415 13.2345H50.7065H50.708ZM42.6076 15.7395C42.899 18.114 44.6092 19.464 46.7711 19.464C48.4813 19.464 49.8058 18.66 50.5785 17.376H54.7434C53.7736 20.7781 50.708 22.9606 46.674 22.9606C41.8026 22.9606 38.3823 19.56 38.3823 14.712C38.3823 9.86545 41.9969 6.36591 46.7741 6.36591C51.5822 6.36591 55.0657 9.89695 55.0657 14.712C55.0657 15.066 55.0348 15.417 54.9701 15.7395H42.6076ZM80.9252 14.6805C80.9252 12.0795 78.9561 10.0889 76.5366 10.0889C74.1171 10.0889 72.1479 12.0165 72.1479 14.6805C72.1479 17.313 74.1171 19.2705 76.5366 19.2705C78.9561 19.2705 80.9252 17.2815 80.9252 14.6805ZM68.1449 6.65541H72.1141V8.74194C73.3062 7.26442 75.0811 6.36741 77.2121 6.36741C81.5684 6.36741 84.9872 9.93145 84.9872 14.6475C84.9872 19.368 81.5036 22.9636 77.115 22.9636C75.0811 22.9636 73.4033 22.1596 72.2436 20.8126V29.3101H68.1449V6.65541ZM99.2923 14.6805C99.2923 11.9835 97.326 10.0889 94.9036 10.0889C92.4841 10.0889 90.5149 12.0165 90.5149 14.6805C90.5149 17.313 92.4841 19.2705 94.9036 19.2705C97.326 19.2705 99.2923 17.3775 99.2923 14.6805ZM99.3276 22.7056V20.6191C98.134 22.0636 96.3562 22.9606 94.2295 22.9606C89.8085 22.9606 86.453 19.4295 86.453 14.6805C86.453 9.96145 89.9366 6.36741 94.3267 6.36741C96.3915 6.36741 98.134 7.26742 99.3276 8.67743V6.65541H103.295V22.7056H99.3276ZM60.9923 8.22893C60.9923 8.22893 62.0019 6.36891 64.4759 6.36891C65.534 6.36891 66.2184 6.72891 66.2184 6.72891V10.824C66.2184 10.824 64.7261 9.90745 63.3544 10.0919C61.9828 10.2765 61.1159 11.529 61.1204 13.206V22.7086H57.0231V6.65841H60.9923V8.22893ZM121.83 6.65541L111.811 29.2591H107.585L111.519 20.5201L104.867 6.65541H109.656L113.547 15.9195L117.54 6.65541H121.83ZM153.815 6.29091L143.881 0.589352C140.967 -1.08466 137.321 1.00636 137.321 4.35739V4.9424C137.321 5.4704 137.605 5.95941 138.065 6.22191L139.941 7.29892C140.491 7.61692 141.177 7.22092 141.177 6.58941V5.1344C141.177 4.40689 141.969 3.95089 142.602 4.31539L151.206 9.25644C151.838 9.61944 151.838 10.5285 151.206 10.8915L142.602 15.831C141.969 16.194 141.179 15.741 141.179 15.012V14.238C141.179 10.8885 137.533 8.79294 134.615 10.47L124.681 16.173C124.019 16.5438 123.466 17.0891 123.081 17.752C122.697 18.4148 122.494 19.1709 122.494 19.941C122.494 20.7112 122.697 21.4673 123.081 22.1301C123.466 22.793 124.019 23.3383 124.681 23.7091L134.615 29.4106C137.53 31.0847 141.179 28.9936 141.179 25.6426V25.0576C141.177 24.7962 141.107 24.5399 140.976 24.3151C140.845 24.0903 140.658 23.9049 140.434 23.7781L138.559 22.6981C138.009 22.3816 137.321 22.7776 137.321 23.4091V24.8641C137.321 25.5916 136.53 26.0461 135.898 25.6816L127.293 20.7421C127.15 20.6613 127.03 20.5428 126.946 20.3989C126.863 20.255 126.819 20.0909 126.819 19.9238C126.819 19.7567 126.863 19.5926 126.946 19.4487C127.03 19.3048 127.15 19.1863 127.293 19.1055L135.898 14.1645C136.531 13.8 137.321 14.2545 137.321 14.9835V15.7575C137.321 19.107 140.965 21.2026 143.881 19.5255L153.815 13.8225C154.477 13.4519 155.028 12.907 155.413 12.2447C155.797 11.5823 156 10.827 156 10.0574C156 9.28794 155.797 8.53255 155.413 7.87024C155.028 7.20793 154.477 6.663 153.815 6.29241V6.29091Z" fill="#0B0500"/>
</svg>
